<svg width="16" height="16" viewBox="0 0 16 16" fill="none" xmlns="http://www.w3.org/2000/svg">
<path fill-rule="evenodd" clip-rule="evenodd" d="M4 3C4 1.89543 4.89543 1 6 1H9.58579C9.98361 1 10.3651 1.15804 10.6464 1.43934L13.5607 4.35355C13.842 4.63486 14 5.01639 14 5.41421V13C14 14.1046 13.1046 15 12 15H8C8.73894 15 9.38543 14.5974 9.73169 14H12C12.5523 14 13 13.5523 13 13V6H10.5C9.67157 6 9 5.32843 9 4.5V2H6C5.44772 2 5 2.44772 5 3V6H4V3ZM10.5 5H12.7929L10 2.20711V4.5C10 4.77614 10.2239 5 10.5 5Z" fill="#202020"/>
<path d="M7.5 9H7V8.5C7 7.672 6.328 7 5.5 7H3.5C2.672 7 2 7.672 2 8.5V9H1.5C0.672 9 0 9.672 0 10.5V13C0 13.552 0.448 14 1 14H2V14.5C2 15.328 2.672 16 3.5 16H5.5C6.328 16 7 15.328 7 14.5V14H8C8.552 14 9 13.552 9 13V10.5C9 9.672 8.328 9 7.5 9ZM6 14.5C6 14.776 5.776 15 5.5 15H3.5C3.224 15 3 14.776 3 14.5V13.5C3 13.224 3.224 13 3.5 13H5.5C5.776 13 6 13.224 6 13.5V14.5ZM6 9H3V8.5C3 8.224 3.224 8 3.5 8H5.5C5.776 8 6 8.224 6 8.5V9Z" fill="#202020"/>
</svg>
