<svg width="16" height="16" viewBox="0 0 16 16" fill="none" xmlns="http://www.w3.org/2000/svg">
<g clip-path="url(#clip0_7202_84206)">
<path d="M6.675 4.951C6.415 4.854 6.128 4.984 6.031 5.243C5.934 5.502 6.065 5.79 6.323 5.887L7.823 6.449C7.881 6.471 7.94 6.481 7.999 6.481C8.201 6.481 8.392 6.358 8.467 6.157C8.564 5.898 8.433 5.61 8.175 5.513L6.675 4.951Z" fill="#202020"/>
<path d="M7.40913 7.22568L8.176 7.513C8.434 7.61 8.565 7.898 8.468 8.157C8.393 8.358 8.202 8.481 8 8.481C7.9703 8.481 7.9406 8.47847 7.91102 8.47314C7.80703 8.03449 7.63735 7.61355 7.40913 7.22568Z" fill="#202020"/>
<path fill-rule="evenodd" clip-rule="evenodd" d="M5 5.25103V3.55C5 3.465 5.018 3.383 5.039 3.303L9.5 5.088V10.785L7.9773 10.2313C7.96824 10.2884 7.9581 10.3453 7.94686 10.402L9.33456 11.7897C9.54992 11.8662 9.77449 11.904 10 11.904C10.232 11.904 10.464 11.864 10.684 11.783L14.684 10.328C15.471 10.043 16 9.287 16 8.449V3.551C16 2.713 15.471 1.958 14.684 1.672L10.684 0.217002C10.242 0.0560024 9.756 0.0560024 9.316 0.217002L5.316 1.672C4.529 1.957 4 2.713 4 3.551V5.02588C4.34082 5.06248 4.67514 5.1378 5 5.25103ZM10 4.211L5.836 2.546L9.659 1.156C9.769 1.116 9.884 1.096 10 1.096C10.116 1.096 10.232 1.116 10.342 1.156L14.164 2.546L10 4.211ZM14.961 3.304C14.982 3.384 15 3.466 15 3.551V8.45C15 8.869 14.736 9.247 14.342 9.39L10.5 10.787V5.089L14.961 3.304Z" fill="#202020"/>
<path d="M2.75809 6.33501C2.76709 6.26601 2.79409 6.20101 2.83709 6.14601C2.88009 6.09101 2.93609 6.04901 3.00009 6.02401C3.03509 6.01001 3.07109 6.00201 3.10809 5.99801C3.70209 5.92801 4.30509 6.01201 4.85809 6.24001C5.41109 6.46801 5.89709 6.83301 6.27009 7.30101C6.64309 7.76901 6.89009 8.32401 6.98809 8.91501C7.08609 9.50601 7.03309 10.111 6.83209 10.674L9.55809 13.4C9.70409 13.539 9.82009 13.705 9.90009 13.89C9.98009 14.074 10.0231 14.273 10.0251 14.474C10.0271 14.675 9.99009 14.875 9.91409 15.061C9.83809 15.247 9.72609 15.417 9.58409 15.559C9.44209 15.701 9.27309 15.814 9.08609 15.889C8.90009 15.965 8.70009 16.003 8.49909 16C8.29809 15.998 8.09909 15.955 7.91509 15.875C7.73109 15.795 7.56409 15.678 7.42509 15.533L4.69909 12.807C4.13509 13.008 3.53009 13.062 2.94009 12.963C2.35009 12.865 1.79409 12.617 1.32609 12.245C0.858086 11.872 0.493086 11.386 0.265086 10.833C0.037086 10.28 -0.045914 9.67801 0.023086 9.08301C0.035086 9.00201 0.070086 8.92701 0.124086 8.86601C0.178086 8.80501 0.248086 8.76101 0.326086 8.73801C0.404086 8.71601 0.487086 8.71701 0.565086 8.74101C0.643086 8.76501 0.712086 8.81101 0.765086 8.87301L1.74009 9.84801C2.02509 10.119 2.40509 10.269 2.79809 10.264C3.19209 10.259 3.56809 10.101 3.84609 9.82201C4.12409 9.54401 4.28309 9.16801 4.28809 8.77401C4.29309 8.38001 4.14409 8.00101 3.87209 7.71601L2.89709 6.74101C2.82509 6.67001 2.77709 6.58001 2.75909 6.48101C2.75109 6.43301 2.75009 6.38401 2.75709 6.33601L2.75809 6.33501Z" fill="#202020"/>
</g>
<defs>
<clipPath id="clip0_7202_84206">
<rect width="16" height="16" fill="white"/>
</clipPath>
</defs>
</svg>
