<svg width="16" height="16" viewBox="0 0 16 16" fill="none" xmlns="http://www.w3.org/2000/svg">
<path d="M6.35355 8.64645L4.85355 7.14645C4.65829 6.95118 4.34171 6.95118 4.14645 7.14645C3.95118 7.34171 3.95118 7.65829 4.14645 7.85355L5.29289 9L4.14645 10.1464C3.95118 10.3417 3.95118 10.6583 4.14645 10.8536C4.34171 11.0488 4.65829 11.0488 4.85355 10.8536L6.35355 9.35355C6.54882 9.15829 6.54882 8.84171 6.35355 8.64645Z" fill="#202020"/>
<path d="M7.5 10C7.22386 10 7 10.2239 7 10.5C7 10.7761 7.22386 11 7.5 11H11.5C11.7761 11 12 10.7761 12 10.5C12 10.2239 11.7761 10 11.5 10H7.5Z" fill="#202020"/>
<path fill-rule="evenodd" clip-rule="evenodd" d="M2 4.5C2 3.11929 3.11929 2 4.5 2H11.5C12.8807 2 14 3.11929 14 4.5V11.5C14 12.8807 12.8807 14 11.5 14H4.5C3.11929 14 2 12.8807 2 11.5V4.5ZM3 5H13V4.5C13 3.67157 12.3284 3 11.5 3H4.5C3.67157 3 3 3.67157 3 4.5V5ZM13 6H3V11.5C3 12.3284 3.67157 13 4.5 13H11.5C12.3284 13 13 12.3284 13 11.5V6Z" fill="#202020"/>
</svg>
