<svg width="16" height="16" viewBox="0 0 16 16" fill="none" xmlns="http://www.w3.org/2000/svg">
<path d="M10 12V13H11C11.2761 13 11.5 12.7761 11.5 12.5C11.5 12.2239 11.2761 12 11 12H10Z" fill="#202020"/>
<path d="M7 6.50163V2.75C7 2.33579 7.33579 2 7.75 2H12.25C12.6642 2 13 2.33579 13 2.75V13.25C13 13.6642 12.6642 14 12.25 14H10V14.5C10 14.6692 9.98285 14.8367 9.9495 15H12.25C13.2165 15 14 14.2165 14 13.25V2.75C14 1.7835 13.2165 1 12.25 1H7.75C6.7835 1 6 1.7835 6 2.75V6.05119C6.36099 6.12531 6.70282 6.27853 7 6.50163Z" fill="#202020"/>
<path d="M1.5 9H2V8.5C2 8.10218 2.15804 7.72064 2.43934 7.43934C2.72064 7.15804 3.10218 7 3.5 7H5.5C5.89782 7 6.27936 7.15804 6.56066 7.43934C6.84196 7.72064 7 8.10218 7 8.5V9H7.5C7.89782 9 8.27936 9.15804 8.56066 9.43934C8.84196 9.72064 9 10.1022 9 10.5V12H7V11.5C7 11.3674 6.94732 11.2402 6.85355 11.1464C6.75979 11.0527 6.63261 11 6.5 11C6.36739 11 6.24021 11.0527 6.14645 11.1464C6.05268 11.2402 6 11.3674 6 11.5V12H3V11.5C3 11.3674 2.94732 11.2402 2.85355 11.1464C2.75979 11.0527 2.63261 11 2.5 11C2.36739 11 2.24021 11.0527 2.14645 11.1464C2.05268 11.2402 2 11.3674 2 11.5V12H0V10.5C0 10.1022 0.158035 9.72064 0.43934 9.43934C0.720644 9.15804 1.10218 9 1.5 9ZM3 9H6V8.5C6 8.36739 5.94732 8.24021 5.85355 8.14645C5.75979 8.05268 5.63261 8 5.5 8H3.5C3.36739 8 3.24021 8.05268 3.14645 8.14645C3.05268 8.24021 3 8.36739 3 8.5V9Z" fill="#202020"/>
<path d="M2 13H0V14.5C0 14.8978 0.158035 15.2794 0.43934 15.5607C0.720644 15.842 1.10218 16 1.5 16H7.5C7.89782 16 8.27936 15.842 8.56066 15.5607C8.84196 15.2794 9 14.8978 9 14.5V13H7V13.5C7 13.6326 6.94732 13.7598 6.85355 13.8536C6.75979 13.9473 6.63261 14 6.5 14C6.36739 14 6.24021 13.9473 6.14645 13.8536C6.05268 13.7598 6 13.6326 6 13.5V13H3V13.5C3 13.6326 2.94732 13.7598 2.85355 13.8536C2.75979 13.9473 2.63261 14 2.5 14C2.36739 14 2.24021 13.9473 2.14645 13.8536C2.05268 13.7598 2 13.6326 2 13.5V13Z" fill="#202020"/>
</svg>
