<svg width="16" height="16" viewBox="0 0 16 16" fill="none" xmlns="http://www.w3.org/2000/svg">
<g clip-path="url(#clip0_7204_95710)">
<path fill-rule="evenodd" clip-rule="evenodd" d="M2.5 2C1.11929 2 0 3.11929 0 4.5V11.5C0 12.8807 1.11929 14 2.5 14H7.75854C7.40768 13.7289 7.0963 13.4054 6.83654 13.0378C6.82766 13.0253 6.81884 13.0126 6.8101 13H2.5C1.67157 13 1 12.3284 1 11.5V7H4.58579C4.98361 7 5.36514 6.84197 5.64645 6.56066L7.20711 5H11.5C12.3284 5 13 5.67157 13 6.5V6.70765C13.0332 6.72981 13.0661 6.75244 13.0988 6.77553C13.4392 7.01608 13.7418 7.3009 14 7.62035V6.5C14 5.11929 12.8807 4 11.5 4H7.20711L5.64645 2.43934C5.36514 2.15804 4.98361 2 4.58579 2H2.5ZM1 6V4.5C1 3.67157 1.67157 3 2.5 3H4.58579C4.71839 3 4.84557 3.05268 4.93934 3.14645L6.29289 4.5L4.93934 5.85355C4.84557 5.94732 4.71839 6 4.58579 6H1Z" fill="#B27C00"/>
<path d="M15.854 15.086L13.293 12.526C13.7493 11.9257 13.9975 11.193 14 10.439C14 9.74676 13.7947 9.07007 13.4101 8.4945C13.0256 7.91893 12.4789 7.47033 11.8394 7.20542C11.1999 6.94051 10.4961 6.8712 9.81719 7.00625C9.13825 7.1413 8.51461 7.47464 8.02513 7.96412C7.53564 8.45361 7.2023 9.07725 7.06725 9.75618C6.9322 10.4351 7.00152 11.1388 7.26642 11.7784C7.53133 12.4179 7.97993 12.9646 8.55551 13.3491C9.13108 13.7337 9.80777 13.939 10.5 13.939C11.2536 13.9366 11.9858 13.6887 12.586 13.233L15.146 15.793C15.2398 15.8869 15.367 15.9397 15.4996 15.9398C15.6323 15.9399 15.7596 15.8873 15.8535 15.7935C15.9474 15.6997 16.0002 15.5725 16.0003 15.4399C16.0004 15.3072 15.9478 15.1799 15.854 15.086V15.086ZM8 10.439C8 9.94454 8.14662 9.46119 8.42133 9.05007C8.69603 8.63895 9.08648 8.31852 9.54329 8.1293C10.0001 7.94008 10.5028 7.89057 10.9877 7.98703C11.4727 8.0835 11.9181 8.3216 12.2678 8.67123C12.6174 9.02086 12.8555 9.46632 12.952 9.95127C13.0484 10.4362 12.9989 10.9389 12.8097 11.3957C12.6205 11.8525 12.3 12.243 11.8889 12.5177C11.4778 12.7924 10.9945 12.939 10.5 12.939C9.83696 12.939 9.20108 12.6756 8.73223 12.2068C8.26339 11.7379 8 11.102 8 10.439V10.439Z" fill="#006CBF"/>
</g>
<defs>
<clipPath id="clip0_7204_95710">
<rect width="16" height="16" fill="white"/>
</clipPath>
</defs>
</svg>
