<svg width="16" height="16" viewBox="0 0 16 16" fill="none" xmlns="http://www.w3.org/2000/svg">
<g clip-path="url(#clip0_7202_68497)">
<path d="M14.736 8.652L8.652 14.736C8.56839 14.8199 8.46903 14.8865 8.35963 14.9319C8.25024 14.9773 8.13295 15.0007 8.0145 15.0007C7.89605 15.0007 7.77876 14.9773 7.66936 14.9319C7.55997 14.8865 7.46061 14.8199 7.377 14.736L1.264 8.624C1.17994 8.54037 1.11324 8.44095 1.06773 8.33146C1.02222 8.22198 0.998787 8.10457 0.998787 7.986C0.998787 7.86743 1.02222 7.75002 1.06773 7.64054C1.11324 7.53105 1.17994 7.43163 1.264 7.348L5.455 3.157L7.043 4.745C6.96061 4.94118 6.93858 5.15747 6.97972 5.36624C7.02087 5.575 7.12333 5.76676 7.274 5.917C7.37391 6.01826 7.49331 6.0982 7.625 6.152V9.995C7.41188 10.0824 7.23256 10.2361 7.11355 10.4333C6.99454 10.6306 6.94216 10.8609 6.96416 11.0902C6.98615 11.3195 7.08135 11.5356 7.23568 11.7066C7.39002 11.8776 7.59528 11.9944 7.82113 12.0397C8.04698 12.0851 8.28142 12.0565 8.48978 11.9583C8.69814 11.8601 8.86936 11.6974 8.97812 11.4943C9.08688 11.2913 9.12741 11.0586 9.09371 10.8307C9.06001 10.6029 8.95388 10.3919 8.791 10.229C8.70752 10.1477 8.61166 10.0802 8.507 10.029V6.218L9.954 7.665C9.85987 7.89177 9.84627 8.14394 9.91548 8.37951C9.98469 8.61508 10.1325 8.81982 10.3344 8.95963C10.5362 9.09944 10.7798 9.16588 11.0247 9.14787C11.2696 9.12986 11.5009 9.0285 11.6801 8.86066C11.8593 8.69283 11.9756 8.46866 12.0096 8.2255C12.0436 7.98234 11.9932 7.73487 11.8669 7.52431C11.7407 7.31376 11.546 7.15284 11.3155 7.06835C11.085 6.98386 10.8324 6.98092 10.6 7.06L9.045 5.509C9.11107 5.31956 9.12255 5.11537 9.07813 4.91972C9.03371 4.72407 8.93518 4.54486 8.79379 4.40252C8.6524 4.26019 8.47383 4.16048 8.27848 4.11476C8.08313 4.06905 7.87887 4.07918 7.689 4.144L6.079 2.534L7.348 1.264C7.43161 1.1801 7.53097 1.11352 7.64036 1.0681C7.74976 1.02267 7.86705 0.99929 7.9855 0.99929C8.10395 0.99929 8.22124 1.02267 8.33064 1.0681C8.44003 1.11352 8.53939 1.1801 8.623 1.264L14.736 7.376C14.8201 7.45963 14.8868 7.55905 14.9323 7.66854C14.9778 7.77802 15.0012 7.89543 15.0012 8.014C15.0012 8.13257 14.9778 8.24997 14.9323 8.35946C14.8868 8.46895 14.8201 8.56837 14.736 8.652V8.652Z" fill="#F05133"/>
</g>
<defs>
<clipPath id="clip0_7202_68497">
<rect width="16" height="16" fill="white"/>
</clipPath>
</defs>
</svg>
