<svg width="16" height="16" viewBox="0 0 16 16" fill="none" xmlns="http://www.w3.org/2000/svg">
<g clip-path="url(#clip0_7202_68639)">
<path d="M7.91284 3C7.97024 2.83976 7.9998 2.67063 8 2.49997C8.00056 2.3294 7.97145 2.16024 7.91417 2H13.5C13.776 2 14 2.224 14 2.5C14 2.776 13.776 3 13.5 3H7.91284Z" fill="currentColor"/>
<path d="M13.5 5C13.776 5 14 5.224 14 5.5C14 5.776 13.776 6 13.5 6H7.5C7.224 6 7 5.776 7 5.5C7 5.224 7.224 5 7.5 5H13.5Z" fill="currentColor"/>
<path d="M13.5 8C13.776 8 14 8.224 14 8.5C14 8.776 13.776 9 13.5 9H10.5C10.224 9 10 8.776 10 8.5C10 8.224 10.224 8 10.5 8H13.5Z" fill="currentColor"/>
<path d="M13.5 11C13.776 11 14 11.224 14 11.5C14 11.776 13.776 12 13.5 12H10.5C10.224 12 10 11.776 10 11.5C10 11.224 10.224 11 10.5 11H13.5Z" fill="currentColor"/>
<path d="M6.85 2.85003L4.85 4.85003C4.80488 4.89747 4.75059 4.93524 4.69042 4.96106C4.63026 4.98687 4.56547 5.00018 4.5 5.00018C4.43453 5.00018 4.36974 4.98687 4.30958 4.96106C4.24941 4.93524 4.19512 4.89747 4.15 4.85003C4.10256 4.80491 4.06478 4.75062 4.03897 4.69045C4.01316 4.63028 3.99985 4.5655 3.99985 4.50003C3.99985 4.43456 4.01316 4.36977 4.03897 4.3096C4.06478 4.24944 4.10256 4.19515 4.15 4.15003L5.29 3.00003H0.5C0.367392 3.00003 0.240215 2.94735 0.146447 2.85358C0.0526784 2.75981 0 2.63264 0 2.50003C0 2.36742 0.0526784 2.24024 0.146447 2.14647C0.240215 2.05271 0.367392 2.00003 0.5 2.00003H5.29L4.15 0.850028C4.10256 0.804911 4.06478 0.750619 4.03897 0.690452C4.01316 0.630285 3.99985 0.565498 3.99985 0.500028C3.99985 0.434558 4.01316 0.369771 4.03897 0.309604C4.06478 0.249437 4.10256 0.195146 4.15 0.150028C4.19512 0.102586 4.24941 0.0648117 4.30958 0.0389999C4.36974 0.0131882 4.43453 -0.00012207 4.5 -0.00012207C4.56547 -0.00012207 4.63026 0.0131882 4.69042 0.0389999C4.75059 0.0648117 4.80488 0.102586 4.85 0.150028L6.85 2.15003C6.89744 2.19515 6.93522 2.24944 6.96103 2.3096C6.98684 2.36977 7.00015 2.43456 7.00015 2.50003C7.00015 2.5655 6.98684 2.63028 6.96103 2.69045C6.93522 2.75062 6.89744 2.80491 6.85 2.85003V2.85003Z" fill="#4C9DDB"/>
</g>
<defs>
<clipPath id="clip0_7202_68639">
<rect width="16" height="16" fill="white"/>
</clipPath>
</defs>
</svg>
