<svg width="16" height="16" viewBox="0 0 16 16" fill="none" xmlns="http://www.w3.org/2000/svg">
<path d="M8.983 3.814C9.019 4.008 8.997 4.209 8.919 4.391C8.841 4.573 8.711 4.727 8.546 4.835C8.38 4.943 8.187 4.999 7.989 4.997C7.791 4.995 7.599 4.934 7.436 4.822C7.273 4.71 7.147 4.553 7.073 4.37C6.999 4.187 6.982 3.985 7.022 3.792C7.063 3.599 7.16 3.421 7.301 3.283C7.442 3.145 7.621 3.051 7.815 3.014C7.944 2.99 8.077 2.991 8.206 3.018C8.335 3.045 8.457 3.097 8.566 3.171C8.675 3.245 8.767 3.34 8.839 3.451C8.911 3.561 8.96 3.685 8.984 3.814H8.983Z" fill="#B27C00"/>
<path d="M5.56205 4.17331C5.72505 4.28431 5.85205 4.44231 5.92605 4.62531C6.00005 4.80831 6.01805 5.01031 5.97805 5.20331C5.93805 5.39731 5.84105 5.57431 5.70005 5.71331C5.55905 5.85231 5.38005 5.94531 5.18505 5.98231C4.99105 6.01931 4.79005 5.99731 4.60805 5.92031C4.42605 5.84331 4.27105 5.71331 4.16305 5.54731C4.05505 5.38131 3.99805 5.18831 4.00005 4.99031C4.00205 4.79231 4.06205 4.59931 4.17405 4.43631C4.32305 4.21731 4.55405 4.06631 4.81405 4.01731C5.07405 3.96831 5.34405 4.02431 5.56305 4.17331H5.56205Z" fill="#C50F1F"/>
<path d="M9.43699 11.826C9.27299 11.715 9.14699 11.557 9.07299 11.374C8.99899 11.191 8.98099 10.989 9.02099 10.796C9.06099 10.602 9.15799 10.425 9.29899 10.286C9.43999 10.147 9.61899 10.054 9.81399 10.017C10.008 9.98004 10.209 10.002 10.391 10.079C10.573 10.156 10.728 10.286 10.836 10.452C10.944 10.617 11.001 10.811 10.999 11.009C10.997 11.207 10.937 11.4 10.825 11.563C10.676 11.782 10.445 11.933 10.185 11.982C9.92499 12.031 9.65499 11.975 9.43599 11.826H9.43699Z" fill="currentColor"/>
<path d="M12.1831 8.98205C11.9891 9.01805 11.7881 8.99605 11.6061 8.91805C11.4241 8.84005 11.2701 8.71005 11.1621 8.54505C11.0541 8.37905 10.9981 8.18605 11.0001 7.98805C11.0021 7.79005 11.0631 7.59805 11.1751 7.43505C11.2871 7.27205 11.4441 7.14605 11.6271 7.07205C11.8101 6.99805 12.0111 6.98105 12.2051 7.02105C12.3981 7.06205 12.5751 7.15805 12.7141 7.30005C12.8521 7.44105 12.9461 7.62005 12.9831 7.81405C13.0071 7.94305 13.0061 8.07605 12.9791 8.20505C12.9521 8.33405 12.9001 8.45605 12.8261 8.56505C12.7521 8.67405 12.6571 8.76605 12.5461 8.83805C12.4361 8.91005 12.3121 8.95905 12.1831 8.98305V8.98205Z" fill="#006CBF"/>
<path d="M11.8265 5.56205C11.7155 5.72605 11.5575 5.85205 11.3745 5.92605C11.1915 6.00005 10.9895 6.01805 10.7965 5.97805C10.6025 5.93805 10.4255 5.84105 10.2865 5.70005C10.1475 5.55905 10.0545 5.38005 10.0175 5.18505C9.98053 4.99105 10.0025 4.79005 10.0795 4.60805C10.1565 4.42605 10.2865 4.27105 10.4525 4.16305C10.6175 4.05505 10.8115 3.99805 11.0095 4.00005C11.2075 4.00205 11.4005 4.06205 11.5635 4.17405C11.7825 4.32305 11.9335 4.55405 11.9825 4.81405C12.0315 5.07405 11.9755 5.34405 11.8265 5.56305V5.56205Z" fill="#11910D"/>
<path fill-rule="evenodd" clip-rule="evenodd" d="M8 2C4.68614 2 2 4.68614 2 8V9C2 9.55186 2.44814 10 3 10C3.55186 10 4 9.55186 4 9C4 7.89586 4.89586 7 6 7C7.10414 7 8 7.89586 8 9V13C8 13.5519 8.44814 14 9 14C10.2063 14 11.4527 13.211 12.4244 12.0011C13.3914 10.7972 14 9.27935 14 8C14 4.68614 11.3139 2 8 2ZM1 8C1 4.13386 4.13386 1 8 1C11.8661 1 15 4.13386 15 8C15 9.55865 14.2776 11.2908 13.2041 12.6274C12.1353 13.958 10.6317 15 9 15C7.89586 15 7 14.1041 7 13V9C7 8.44814 6.55186 8 6 8C5.44814 8 5 8.44814 5 9C5 10.1041 4.10414 11 3 11C1.89586 11 1 10.1041 1 9V8Z" fill="currentColor"/>
</svg>
