<svg width="16" height="16" viewBox="0 0 16 16" fill="none" xmlns="http://www.w3.org/2000/svg">
<path fill-rule="evenodd" clip-rule="evenodd" d="M3 3C3 1.89543 3.89543 1 5 1H8.58579C8.98361 1 9.36514 1.15804 9.64645 1.43934L12.5607 4.35355C12.842 4.63486 13 5.01639 13 5.41421V13C13 14.1046 12.1046 15 11 15H7.62166L8.061 14.561C8.20039 14.4217 8.31096 14.2563 8.38641 14.0743C8.39657 14.0497 8.40607 14.025 8.4149 14H11C11.5523 14 12 13.5523 12 13V6H9.5C8.67157 6 8 5.32843 8 4.5V2H5C4.44772 2 4 2.44772 4 3V6.37801L3.811 6.18901C3.6717 6.04962 3.5063 5.93904 3.32425 5.8636C3.21977 5.82031 3.11099 5.78907 3 5.77031V3ZM9.5 5H11.7929L9 2.20711V4.5C9 4.77614 9.22386 5 9.5 5Z" fill="currentColor"/>
<path d="M0.396828 8.89657C0.201566 9.09183 0.201566 9.40842 0.396828 9.60368L1.39668 10.6035C1.59194 10.7988 1.90852 10.7988 2.10378 10.6035L2.7073 10H3V13C3 13.2652 3.10536 13.5196 3.29289 13.7071C3.48043 13.8947 3.73479 14 4 14H4.81686C4.70846 14.1876 4.73165 14.4309 4.88807 14.595L5.37607 15.107C5.46899 15.2045 5.59732 15.2604 5.732 15.262C5.86668 15.2636 5.99632 15.2108 6.09155 15.1156L7.35355 13.8536C7.54882 13.6583 7.54882 13.3417 7.35355 13.1465L6.85355 12.6465C6.65829 12.4512 6.34171 12.4512 6.14645 12.6465L5.79289 13H4V10H4.82217C4.72152 10.1859 4.74699 10.4223 4.90009 10.583L5.38809 11.095C5.48102 11.1925 5.60935 11.2484 5.74403 11.25C5.87871 11.2516 6.00834 11.1988 6.10358 11.1036L7.35358 9.85356C7.54884 9.6583 7.54884 9.34172 7.35358 9.14645L6.85358 8.64645C6.65832 8.45119 6.34173 8.45119 6.14647 8.64645L5.79292 9.00001H3.7073L4.10348 8.60383C4.29874 8.40857 4.29874 8.09198 4.10348 7.89672L3.10363 6.89687C2.90837 6.70161 2.59179 6.70161 2.39653 6.89687L0.396828 8.89657Z" fill="#B27C00"/>
</svg>
