<svg width="16" height="16" viewBox="0 0 16 16" fill="none" xmlns="http://www.w3.org/2000/svg">
<g clip-path="url(#clip0_7202_66072)">
<path fill-rule="evenodd" clip-rule="evenodd" d="M2.732 2.732C3.201 2.263 3.837 2 4.5 2H11.5C12.163 2 12.799 2.263 13.268 2.732C13.737 3.201 14 3.837 14 4.5V7.03116C13.6418 7.09269 13.3008 7.22981 13 7.43306V6H3V11.5C3 11.898 3.158 12.279 3.439 12.561C3.72 12.842 4.102 13 4.5 13H7.63351C7.50768 13.2493 7.40933 13.5129 7.34103 13.7863L7.28812 14H4.5C3.837 14 3.201 13.737 2.732 13.268C2.263 12.799 2 12.163 2 11.5V4.5C2 3.837 2.263 3.201 2.732 2.732ZM3 5H13V4.5C13 4.102 12.842 3.721 12.561 3.439C12.28 3.158 11.898 3 11.5 3H4.5C4.102 3 3.721 3.158 3.439 3.439C3.158 3.72 3 4.102 3 4.5V5Z" fill="currentColor"/>
<path d="M11.3666 9L10.3663 10H7.5C7.224 10 7 9.776 7 9.5C7 9.224 7.224 9 7.5 9H11.3666Z" fill="currentColor"/>
<path d="M7 7.5C7 7.224 7.224 7 7.5 7H11.5C11.776 7 12 7.224 12 7.5C12 7.776 11.776 8 11.5 8H7.5C7.224 8 7 7.776 7 7.5Z" fill="currentColor"/>
<path d="M4 11.5C4 11.224 4.224 11 4.5 11H7.5C7.776 11 8 11.224 8 11.5C8 11.776 7.776 12 7.5 12H4.5C4.224 12 4 11.776 4 11.5Z" fill="currentColor"/>
<path d="M15.5449 8.45396C15.2519 8.16162 14.8549 7.99744 14.4409 7.99744C14.027 7.99744 13.63 8.16162 13.3369 8.45396L9.04895 12.7414C8.69299 13.0975 8.44065 13.5437 8.31895 14.0323L8.01895 15.2431C7.99361 15.3452 7.99509 15.452 8.02324 15.5534C8.0514 15.6547 8.10528 15.747 8.17964 15.8213C8.25401 15.8957 8.34633 15.9496 8.44766 15.9777C8.54899 16.0059 8.65588 16.0074 8.75795 15.982L9.96895 15.6821C10.4572 15.5598 10.9031 15.3071 11.2589 14.9512L15.5479 10.6637C15.6931 10.5185 15.8081 10.3461 15.8865 10.1564C15.9649 9.96675 16.0051 9.76346 16.0049 9.5582C16.0046 9.35295 15.9638 9.14976 15.8849 8.96028C15.806 8.7708 15.6905 8.59875 15.5449 8.45396V8.45396Z" fill="#006CBF"/>
</g>
<defs>
<clipPath id="clip0_7202_66072">
<rect width="16" height="16" fill="white"/>
</clipPath>
</defs>
</svg>
