<svg width="16" height="16" viewBox="0 0 16 16" fill="none" xmlns="http://www.w3.org/2000/svg">
<path d="M9.85398 12.854L7.85398 14.854C7.65898 15.049 7.34198 15.049 7.14698 14.854L5.14698 12.854C4.95198 12.659 4.95198 12.342 5.14698 12.147C5.34198 11.952 5.65898 11.952 5.85398 12.147L6.99998 13.293V8.5C6.99998 8.224 7.22398 8 7.49998 8C7.77598 8 7.99998 8.224 7.99998 8.5V13.293L9.14598 12.147C9.24398 12.049 9.37198 12.001 9.49998 12.001C9.62798 12.001 9.75598 12.05 9.85398 12.147C10.049 12.342 10.049 12.659 9.85398 12.854Z" fill="#4C9DDB"/>
<path d="M14 3V6C14 6.552 13.551 7 13 7H2C1.449 7 1 6.552 1 6V3C1 2.448 1.449 2 2 2H13C13.551 2 14 2.448 14 3ZM13.001 6V3H2.001V6H13.001Z" fill="currentColor"/>
</svg>
