<svg width="16" height="16" viewBox="0 0 16 16" fill="none" xmlns="http://www.w3.org/2000/svg">
<g clip-path="url(#clip0_9282_22723)">
<path fill-rule="evenodd" clip-rule="evenodd" d="M11.5 2C12.8807 2 14 3.11929 14 4.5V11.5C14 12.8807 12.8807 14 11.5 14H8.68555L9.68555 13H11.5C12.3284 13 13 12.3284 13 11.5V6H6.68457L6.24023 5.55566C6.07825 5.3927 5.88789 5.26481 5.66992 5.17383C5.45597 5.08587 5.23094 5.04102 5 5.04102C4.76908 5.04102 4.5441 5.08584 4.32617 5.17578C4.11717 5.26378 3.9277 5.38971 3.7627 5.55371L3.31641 6H3V6.31641L2 7.31641V4.5C2 3.11929 3.11929 2 4.5 2H11.5ZM4.5 3C3.67157 3 3 3.67157 3 4.5V5H13V4.5C13 3.67157 12.3284 3 11.5 3H4.5Z" fill="currentColor"/>
<path d="M9.811 11.466L5.466 15.811C5.406 15.871 5.335 15.919 5.257 15.951C5.179 15.983 5.095 16 5.01 16C4.925 16 4.842 15.983 4.763 15.951C4.685 15.918 4.614 15.871 4.554 15.811L0.189 11.445C0.129 11.385 0.081 11.314 0.049 11.236C0.017 11.158 0 11.074 0 10.989C0 10.904 0.017 10.821 0.049 10.742C0.081 10.664 0.129 10.593 0.189 10.533L3.182 7.54003L4.316 8.67403C4.239 8.86203 4.24 9.07203 4.318 9.26003C4.396 9.44703 4.545 9.59603 4.732 9.67403V12.419C4.638 12.458 4.553 12.515 4.481 12.586C4.374 12.693 4.3 12.83 4.271 12.979C4.241 13.128 4.256 13.282 4.314 13.422C4.372 13.562 4.47 13.682 4.596 13.766C4.722 13.85 4.87 13.895 5.022 13.895C5.174 13.895 5.322 13.85 5.448 13.766C5.574 13.682 5.672 13.562 5.73 13.422C5.788 13.282 5.803 13.127 5.773 12.979C5.743 12.83 5.67 12.693 5.563 12.586C5.504 12.528 5.437 12.479 5.363 12.442V9.72603L6.398 10.76C6.331 10.922 6.321 11.103 6.371 11.271C6.421 11.44 6.527 11.586 6.671 11.686C6.816 11.786 6.99 11.833 7.165 11.82C7.34 11.807 7.506 11.734 7.633 11.613C7.761 11.493 7.844 11.332 7.868 11.158C7.892 10.984 7.855 10.807 7.764 10.657C7.673 10.507 7.533 10.392 7.368 10.332C7.203 10.272 7.022 10.271 6.856 10.328L5.744 9.22003C5.791 9.08503 5.799 8.93903 5.767 8.79903C5.735 8.65903 5.665 8.53103 5.564 8.43003C5.463 8.32803 5.336 8.25703 5.196 8.22403C5.057 8.19103 4.911 8.19803 4.775 8.24403L3.625 7.09903L4.532 6.19303C4.592 6.13303 4.663 6.08603 4.741 6.05303C4.819 6.02103 4.903 6.00403 4.987 6.00403C5.071 6.00403 5.155 6.02103 5.233 6.05303C5.311 6.08503 5.382 6.13303 5.442 6.19303L9.808 10.559C9.928 10.679 9.995 10.842 9.995 11.012C9.995 11.182 9.928 11.345 9.808 11.465L9.811 11.466Z" fill="#F05133"/>
</g>
<defs>
<clipPath id="clip0_9282_22723">
<rect width="16" height="16" fill="white"/>
</clipPath>
</defs>
</svg>
