<svg width="16" height="16" viewBox="0 0 16 16" fill="none" xmlns="http://www.w3.org/2000/svg">
<g clip-path="url(#clip0_7199_55147)">
<path fill-rule="evenodd" clip-rule="evenodd" d="M6 1C4.89543 1 4 1.89543 4 3V5.02588C4.34082 5.06248 4.67514 5.1378 5 5.25103V3C5 2.44772 5.44772 2 6 2H9V4.5C9 5.32843 9.67157 6 10.5 6H13V13C13 13.5523 12.5523 14 12 14H10.9703C11.004 14.1594 11.0219 14.322 11.0239 14.487C11.0259 14.6605 11.0104 14.8319 10.9774 15H12C13.1046 15 14 14.1046 14 13V5.41421C14 5.01639 13.842 4.63486 13.5607 4.35355L10.6464 1.43934C10.3651 1.15804 9.98361 1 9.58579 1H6ZM12.7929 5H10.5C10.2239 5 10 4.77614 10 4.5V2.20711L12.7929 5Z" fill="currentColor"/>
<path d="M2.75809 6.33498C2.76709 6.26598 2.79409 6.20098 2.83709 6.14598C2.88009 6.09098 2.93609 6.04898 3.00009 6.02398C3.03509 6.00998 3.07109 6.00198 3.10809 5.99798C3.70209 5.92798 4.30509 6.01198 4.85809 6.23998C5.41109 6.46798 5.89709 6.83298 6.27009 7.30098C6.64309 7.76898 6.89009 8.32398 6.98809 8.91498C7.08609 9.50598 7.03309 10.111 6.83209 10.674L9.55809 13.4C9.70409 13.539 9.82009 13.705 9.90009 13.89C9.98009 14.074 10.0231 14.273 10.0251 14.474C10.0271 14.675 9.99009 14.875 9.91409 15.061C9.83809 15.247 9.72609 15.417 9.58409 15.559C9.44209 15.701 9.27309 15.814 9.08609 15.889C8.90009 15.965 8.70009 16.003 8.49909 16C8.29809 15.998 8.09909 15.955 7.91509 15.875C7.73109 15.795 7.56409 15.678 7.42509 15.533L4.69909 12.807C4.13509 13.008 3.53009 13.062 2.94009 12.963C2.35009 12.865 1.79409 12.617 1.32609 12.245C0.858086 11.872 0.493086 11.386 0.265086 10.833C0.037086 10.28 -0.045914 9.67798 0.023086 9.08298C0.035086 9.00198 0.070086 8.92698 0.124086 8.86598C0.178086 8.80498 0.248086 8.76098 0.326086 8.73798C0.404086 8.71598 0.487086 8.71698 0.565086 8.74098C0.643086 8.76498 0.712086 8.81098 0.765086 8.87298L1.74009 9.84798C2.02509 10.119 2.40509 10.269 2.79809 10.264C3.19209 10.259 3.56809 10.101 3.84609 9.82198C4.12409 9.54398 4.28309 9.16798 4.28809 8.77398C4.29309 8.37998 4.14409 8.00098 3.87209 7.71598L2.89709 6.74098C2.82509 6.66998 2.77709 6.57998 2.75909 6.48098C2.75109 6.43298 2.75009 6.38398 2.75709 6.33598L2.75809 6.33498Z" fill="currentColor"/>
</g>
<defs>
<clipPath id="clip0_7199_55147">
<rect width="16" height="16" fill="white"/>
</clipPath>
</defs>
</svg>
